<svg xmlns="http://www.w3.org/2000/svg" width="290" height="290" viewBox="0 0 290 290" version="1.1"><path d="M 126.009 1.022 C 79.401 5.879, 38.104 33.902, 17.107 74.919 C 1.968 104.494, -2.368 135.387, 4.001 168.300 C 7.660 187.207, 15.983 207.030, 27.805 225 C 34.428 235.067, 58.181 259.528, 60.477 258.647 C 61.279 258.339, 62.245 258.587, 62.622 259.198 C 63.038 259.871, 62.854 260.028, 62.155 259.595 C 61.520 259.203, 61 259.144, 61 259.463 C 61 261.624, 90.790 278.132, 99 280.521 C 103.195 281.742, 100.851 280.342, 94.171 277.638 C 86.796 274.653, 70.654 266.013, 71.281 265.386 C 71.517 265.150, 76.162 267.185, 81.605 269.907 C 91.961 275.087, 112.653 282.480, 119.500 283.447 C 121.700 283.758, 119.675 282.919, 115 281.584 C 98.984 277.009, 76.515 267.345, 70.384 262.396 C 67.977 260.452, 68.657 260.710, 79.350 265.793 C 92.355 271.976, 91.320 270.819, 77.644 263.887 C 71.124 260.582, 66.016 257.651, 66.293 257.373 C 66.571 257.096, 69.431 258.192, 72.649 259.808 C 80.155 263.579, 101.265 272.010, 103.097 271.969 C 103.869 271.952, 100 270.221, 94.500 268.122 C 81.956 263.336, 68.519 257.147, 69.198 256.469 C 69.481 256.186, 72.814 257.355, 76.606 259.067 C 84.156 262.475, 118.102 274.231, 118.692 273.642 C 118.893 273.440, 111.539 270.700, 102.349 267.553 C 93.158 264.405, 81.557 260.041, 76.569 257.853 C 65.517 253.006, 63.761 252.386, 67 254.473 L 69.500 256.083 67.125 255.435 C 65.515 254.995, 64.970 255.142, 65.434 255.893 C 65.810 256.502, 65.555 257, 64.868 257 C 64.157 257, 64.408 257.578, 65.449 258.339 C 67.139 259.575, 67.150 259.728, 65.588 260.328 C 64.658 260.685, 64.150 260.567, 64.460 260.065 C 64.770 259.563, 63.663 258.184, 62 257 C 60.337 255.816, 59.233 254.431, 59.547 253.924 C 59.861 253.416, 59.716 253, 59.226 253 C 57.481 253, 57.036 254.339, 58.259 255.908 C 59.327 257.278, 59.280 257.328, 57.924 256.272 C 56.815 255.408, 56.393 253.545, 56.500 249.996 C 56.598 246.775, 56.264 245.081, 55.576 245.313 C 54.984 245.514, 54.554 246.657, 54.621 247.854 C 54.717 249.581, 54.461 249.798, 53.382 248.902 C 52.634 248.281, 52.342 247.262, 52.733 246.637 C 53.986 244.633, 53.842 243.153, 52.338 242.576 C 51.532 242.267, 51.153 241.561, 51.496 241.007 C 52.097 240.035, 51.261 239.734, 47.917 239.719 C 47.046 239.715, 46.333 239.109, 46.333 238.372 C 46.333 237.368, 46.668 237.310, 47.667 238.138 C 48.961 239.213, 49.111 239.113, 49.375 237 C 49.444 236.450, 49.837 236, 50.250 236 C 50.663 236, 51.536 236, 52.191 236 C 52.846 236, 52.509 236.708, 51.441 237.574 C 50.374 238.440, 50.022 238.888, 50.660 238.571 C 51.298 238.253, 52.548 238.273, 53.439 238.615 C 54.899 239.175, 54.884 239.367, 53.279 240.560 C 51.620 241.795, 51.647 241.874, 53.681 241.734 C 54.880 241.652, 55.641 241.228, 55.372 240.792 C 54.632 239.595, 56.204 239.902, 59 241.500 C 62.358 243.420, 64.168 243.336, 61 241.408 L 58.500 239.886 61.500 240.446 C 63.259 240.775, 61.613 239.641, 57.522 237.704 C 53.472 235.787, 51.024 234.103, 51.688 233.693 C 52.317 233.304, 54.024 233.439, 55.481 233.993 C 58.814 235.260, 59.955 235.263, 58 234 C 56.755 233.196, 56.840 233.024, 58.500 232.992 C 59.600 232.970, 57.906 231.886, 54.736 230.582 C 51.566 229.279, 47.841 227.471, 46.458 226.565 C 45.075 225.658, 43.557 225.156, 43.085 225.447 C 41.930 226.161, 39.651 223.298, 39.475 220.913 C 39.343 219.113, 39.449 219.096, 41.167 220.651 C 42.175 221.563, 43.014 221.903, 43.030 221.405 C 43.047 220.907, 43.509 221.269, 44.057 222.208 C 44.665 223.251, 45.691 223.672, 46.690 223.289 C 47.779 222.871, 48.088 223.049, 47.612 223.819 C 47.132 224.595, 47.451 224.764, 48.578 224.332 C 49.925 223.815, 49.587 223.338, 46.881 221.938 C 45.022 220.977, 43.163 220.399, 42.750 220.654 C 42.043 221.092, 41.590 219.495, 41.906 217.676 C 41.985 217.222, 41.646 217.101, 41.152 217.406 C 40.135 218.034, 30.528 206.638, 24.175 197.268 C -3.386 156.617, -2.656 103.969, 26.058 61.414 C 37.500 44.456, 57.828 26.429, 76.160 16.983 C 96.987 6.250, 116.350 1.700, 141 1.745 C 165.415 1.789, 187.132 7.120, 208 18.189 C 232.539 31.206, 255.465 52.913, 267.608 74.626 C 269.568 78.132, 271.401 81, 271.682 81 C 272.622 81, 265.819 69.576, 260.132 61.605 C 252.771 51.286, 236.800 35.550, 225.500 27.481 C 215.170 20.105, 200.383 12.513, 187.800 8.125 C 169.986 1.913, 145.007 -0.958, 126.009 1.022 M 130.157 24 C 128.490 28.936, 128.385 30, 129.566 30 C 130.355 30, 131 29.550, 131 29 C 131 27.607, 135.345 27.745, 136.783 29.183 C 139.123 31.523, 139.190 28.997, 136.932 23.550 C 135.667 20.498, 134.081 18, 133.408 18 C 132.734 18, 131.272 20.700, 130.157 24 M 154.490 22.750 C 154.160 24.813, 153.739 27.258, 153.555 28.185 C 153.222 29.868, 154.859 31, 157.627 31 C 159.563 31, 164 26.506, 164 24.545 C 164 22.183, 160.295 19, 157.545 19 C 155.482 19, 154.995 19.598, 154.490 22.750 M 105.306 22.644 C 104.650 22.911, 104.290 23.663, 104.507 24.315 C 104.724 24.967, 105.391 27.413, 105.989 29.750 C 106.688 32.481, 107.638 34, 108.646 34 C 109.629 34, 109.999 33.440, 109.638 32.500 C 108.941 30.683, 109.424 30.623, 111.968 32.212 C 113.036 32.879, 114.263 33.070, 114.696 32.637 C 115.129 32.204, 114.697 31.410, 113.736 30.872 C 112.491 30.176, 112.166 29.186, 112.606 27.434 C 113.643 23.302, 109.834 20.802, 105.306 22.644 M 133 23.500 C 133 24.325, 133.436 25, 133.969 25 C 134.501 25, 134.678 24.325, 134.362 23.500 C 134.045 22.675, 133.609 22, 133.393 22 C 133.177 22, 133 22.675, 133 23.500 M 157 25 C 157 28.456, 159.492 29.175, 160.497 26.009 C 161.253 23.628, 160.418 22, 158.441 22 C 157.507 22, 157 23.055, 157 25 M 108 26.059 C 108 27.191, 108.450 27.840, 109 27.500 C 109.550 27.160, 110 26.234, 110 25.441 C 110 24.648, 109.550 24, 109 24 C 108.450 24, 108 24.927, 108 26.059 M 178.470 29.090 C 177.262 32.727, 177.087 34.487, 177.857 35.257 C 178.627 36.027, 179.082 35.930, 179.451 34.917 C 182.882 25.496, 183.082 24, 180.914 24 C 180.500 24, 179.400 26.290, 178.470 29.090 M 83.750 30.689 C 81.495 31.278, 81.544 32.007, 84.199 37.473 C 86.547 42.305, 89.491 43.805, 88.445 39.636 C 88.036 38.008, 88.342 37.083, 89.426 36.667 C 91.289 35.952, 91.498 32.898, 89.800 31.200 C 88.589 29.989, 86.957 29.851, 83.750 30.689 M 195.527 35.947 C 193.766 39.423, 193.359 41.104, 194.162 41.600 C 194.790 41.988, 195.853 41.554, 196.525 40.635 C 197.247 39.647, 198.416 39.222, 199.386 39.595 C 201.436 40.381, 204 38.348, 204 35.934 C 204 34.256, 200.565 31, 198.794 31 C 198.376 31, 196.906 33.226, 195.527 35.947 M 85.694 32.639 C 84.895 33.438, 85.798 35, 87.059 35 C 87.577 35, 88 34.325, 88 33.500 C 88 31.954, 86.820 31.513, 85.694 32.639 M 199.639 34.694 C 198.513 35.820, 198.954 37, 200.500 37 C 201.325 37, 202 36.577, 202 36.059 C 202 34.798, 200.438 33.895, 199.639 34.694 M 215.600 47.573 C 212.981 51.002, 212.258 52.655, 213.038 53.426 C 213.814 54.193, 214.396 54.019, 215.076 52.815 C 215.786 51.556, 216.882 51.269, 219.410 51.679 C 222.281 52.145, 222.900 51.890, 223.502 49.993 C 224.028 48.335, 223.570 47.115, 221.730 45.276 L 219.249 42.794 215.600 47.573 M 218.694 47.639 C 217.895 48.438, 218.798 50, 220.059 50 C 220.577 50, 221 49.325, 221 48.500 C 221 46.954, 219.820 46.513, 218.694 47.639 M 233.237 63.785 C 230.893 64.686, 229.149 65.890, 229.362 66.461 C 229.575 67.033, 230.304 67.372, 230.980 67.215 C 232.921 66.765, 235.102 69.111, 234.787 71.310 C 234.208 75.355, 236.644 73.876, 239.224 68.616 C 242.752 61.422, 241.667 60.547, 233.237 63.785 M 235.543 65.931 C 235.226 66.443, 235.378 67.115, 235.879 67.425 C 236.380 67.735, 237.048 67.316, 237.364 66.494 C 237.986 64.874, 236.483 64.409, 235.543 65.931 M 249 82.596 C 243.539 85.717, 243.645 85.616, 244.457 86.930 C 244.900 87.647, 246.117 87.474, 248.200 86.397 L 251.286 84.801 249.062 88.400 C 245.982 93.383, 248.258 94.088, 254.626 90.124 C 258.591 87.656, 259.138 86.990, 257.664 86.424 C 256.675 86.045, 255.356 86.244, 254.733 86.867 C 252.660 88.940, 251.746 88.036, 253.385 85.535 C 255.072 82.960, 255.537 79.991, 254.250 80.012 C 253.838 80.019, 251.475 81.181, 249 82.596 M 273.376 85 C 273.644 85.825, 275.296 89.844, 277.046 93.932 C 289.767 123.633, 291.151 163.738, 280.531 194.919 C 279.141 198.999, 278.182 202.515, 278.399 202.732 C 279.051 203.384, 283.845 188.130, 286.016 178.500 C 288.659 166.768, 289.677 143.576, 288.078 131.500 C 286.022 115.971, 280.891 98.303, 275.591 88.500 C 274.104 85.750, 273.107 84.175, 273.376 85 M 110.720 90.020 C 111.941 90.511, 113.291 92.170, 113.720 93.707 C 114.149 95.243, 114.500 108.469, 114.500 123.097 C 114.500 151.399, 114.391 152.080, 109.535 154.048 C 108.293 154.552, 111.984 154.873, 119 154.873 C 126.383 154.873, 129.739 154.566, 128.375 154.015 C 125.392 152.810, 124 147.988, 124 138.857 L 124 131.013 128.250 127.905 C 130.588 126.196, 134.970 123.696, 137.988 122.349 C 141.007 121.001, 143.819 119.289, 144.236 118.543 C 144.654 117.796, 145.803 117.397, 146.791 117.656 C 149.384 118.334, 158.006 112.120, 160.166 108.016 C 162.651 103.295, 162.518 97.929, 159.832 94.514 C 155.904 89.519, 153.008 88.994, 129.782 89.063 C 116.236 89.104, 109.307 89.451, 110.720 90.020 M 124 109 C 124 126.463, 124.525 130.195, 126.528 126.955 C 126.883 126.380, 131.655 122.964, 137.133 119.364 C 148.431 111.938, 152.455 107.078, 152.455 100.857 C 152.455 93.412, 145.511 90, 130.364 90 L 124 90 124 109 M 260.500 104.980 C 255.156 106.833, 254.485 108.603, 257.745 112.250 C 261.351 116.282, 268.808 112.400, 267.516 107.163 C 266.550 103.251, 265.990 103.076, 260.500 104.980 M 260.750 107.689 C 259.788 107.941, 259 108.819, 259 109.640 C 259 111.828, 264.387 111.003, 264.815 108.750 C 265.143 107.019, 264.229 106.780, 260.750 107.689 M 266.112 129.081 C 261.080 130.069, 260.860 130.196, 261.804 131.570 C 262.878 133.133, 273 131.192, 273 129.424 C 273 127.853, 272.493 127.828, 266.112 129.081 M 130.111 130.662 C 133.524 131.575, 134 135.542, 134 163.113 C 134 191.234, 133.711 193.371, 129.685 194.993 C 128.239 195.576, 131.389 195.873, 139 195.873 C 146.899 195.873, 149.791 195.588, 148.235 194.963 C 145.041 193.680, 144 190.127, 144 180.508 L 144 172.146 147.744 169.060 C 149.802 167.363, 155.480 164.319, 160.360 162.296 C 172.439 157.290, 177.432 153.805, 179.936 148.633 C 182.524 143.285, 182.533 140.387, 179.974 136.190 C 177 131.312, 172.806 129.982, 160.782 130.105 L 150.500 130.211 158 131.390 C 169.508 133.200, 172 135.254, 172 142.931 C 172 146.219, 171.287 147.783, 168.263 151.131 C 165.288 154.424, 154.022 162.840, 145.280 168.300 C 144.257 168.939, 144 165.293, 144 150.119 C 144 131.231, 144.011 131.137, 146.250 130.706 C 147.488 130.467, 144 130.263, 138.500 130.252 C 133 130.241, 129.225 130.426, 130.111 130.662 M 272.710 148 C 272.283 149.634, 271.346 150, 267.594 150 C 265.067 150, 263 150.450, 263 151 C 263 151.550, 265.067 152, 267.594 152 C 271.346 152, 272.283 152.366, 272.710 154 C 273.688 157.738, 275 156.019, 275 151 C 275 145.981, 273.688 144.262, 272.710 148 M 273.208 212.532 C 271.454 216.089, 270.233 219, 270.495 219 C 271.165 219, 277.211 206.878, 276.764 206.431 C 276.563 206.229, 274.962 208.975, 273.208 212.532 M 40 222.378 C 40 222.585, 40.788 223.373, 41.750 224.128 C 43.336 225.371, 43.371 225.336, 42.128 223.750 C 40.821 222.084, 40 221.555, 40 222.378 M 59.813 224.683 C 60.534 224.972, 61.397 224.936, 61.729 224.604 C 62.061 224.272, 61.471 224.036, 60.417 224.079 C 59.252 224.127, 59.015 224.364, 59.813 224.683 M 54.813 225.683 C 55.534 225.972, 56.397 225.936, 56.729 225.604 C 57.061 225.272, 56.471 225.036, 55.417 225.079 C 54.252 225.127, 54.015 225.364, 54.813 225.683 M 76.269 225.693 C 77.242 225.947, 78.592 225.930, 79.269 225.656 C 79.946 225.382, 79.150 225.175, 77.500 225.195 C 75.850 225.215, 75.296 225.439, 76.269 225.693 M 86.250 225.689 C 87.213 225.941, 88.787 225.941, 89.750 225.689 C 90.713 225.438, 89.925 225.232, 88 225.232 C 86.075 225.232, 85.287 225.438, 86.250 225.689 M 263.463 229.250 C 261.921 231.588, 261.299 232.972, 262.080 232.327 C 263.582 231.086, 267.411 225, 266.689 225 C 266.456 225, 265.004 226.912, 263.463 229.250 M 43.914 226.191 C 43.867 226.361, 43.722 227.951, 43.591 229.725 C 43.402 232.302, 43.621 232.730, 44.677 231.853 C 45.405 231.249, 46 231.125, 46 231.578 C 46 232.030, 46.540 231.860, 47.200 231.200 C 49.229 229.171, 50.424 229.874, 48.521 231.976 C 47.538 233.063, 46.230 233.652, 45.616 233.284 C 45.002 232.917, 45.113 233.372, 45.862 234.296 C 47.132 235.862, 47.410 235.844, 49.946 234.038 C 51.640 232.832, 53.581 232.302, 55.084 232.634 C 56.413 232.927, 55.250 232.066, 52.500 230.720 C 48.686 228.854, 47.159 228.538, 46.063 229.387 C 44.911 230.279, 44.753 230.159, 45.269 228.782 C 45.623 227.837, 45.482 226.798, 44.956 226.473 C 44.430 226.148, 43.961 226.021, 43.914 226.191 M 59.269 226.693 C 60.242 226.947, 61.592 226.930, 62.269 226.656 C 62.946 226.382, 62.150 226.175, 60.500 226.195 C 58.850 226.215, 58.296 226.439, 59.269 226.693 M 95.269 226.693 C 96.242 226.947, 97.592 226.930, 98.269 226.656 C 98.946 226.382, 98.150 226.175, 96.500 226.195 C 94.850 226.215, 94.296 226.439, 95.269 226.693 M 68.264 227.718 C 69.784 227.947, 72.034 227.941, 73.264 227.704 C 74.494 227.467, 73.250 227.279, 70.500 227.286 C 67.750 227.294, 66.744 227.488, 68.264 227.718 M 100.813 227.683 C 101.534 227.972, 102.397 227.936, 102.729 227.604 C 103.061 227.272, 102.471 227.036, 101.417 227.079 C 100.252 227.127, 100.015 227.364, 100.813 227.683 M 56.352 228.765 C 55.721 229.169, 58.160 229.614, 61.773 229.754 C 65.386 229.894, 68.153 229.843, 67.921 229.640 C 66.971 228.807, 57.415 228.084, 56.352 228.765 M 83.762 228.707 C 85.006 228.946, 86.806 228.937, 87.762 228.687 C 88.718 228.437, 87.700 228.241, 85.500 228.252 C 83.300 228.263, 82.518 228.468, 83.762 228.707 M 104.813 228.683 C 105.534 228.972, 106.397 228.936, 106.729 228.604 C 107.061 228.272, 106.471 228.036, 105.417 228.079 C 104.252 228.127, 104.015 228.364, 104.813 228.683 M 93.269 229.693 C 94.242 229.947, 95.592 229.930, 96.269 229.656 C 96.946 229.382, 96.150 229.175, 94.500 229.195 C 92.850 229.215, 92.296 229.439, 93.269 229.693 M 71.250 230.716 C 72.763 230.945, 75.237 230.945, 76.750 230.716 C 78.263 230.487, 77.025 230.300, 74 230.300 C 70.975 230.300, 69.737 230.487, 71.250 230.716 M 98.813 230.683 C 99.534 230.972, 100.397 230.936, 100.729 230.604 C 101.061 230.272, 100.471 230.036, 99.417 230.079 C 98.252 230.127, 98.015 230.364, 98.813 230.683 M 48.405 233.250 L 46.500 235.500 49 233.511 C 50.375 232.417, 51.688 231.404, 51.917 231.261 C 52.146 231.117, 51.878 231, 51.322 231 C 50.765 231, 49.453 232.012, 48.405 233.250 M 81.750 231.706 C 82.987 231.944, 85.013 231.944, 86.250 231.706 C 87.487 231.467, 86.475 231.272, 84 231.272 C 81.525 231.272, 80.513 231.467, 81.750 231.706 M 102.813 231.683 C 103.534 231.972, 104.397 231.936, 104.729 231.604 C 105.061 231.272, 104.471 231.036, 103.417 231.079 C 102.252 231.127, 102.015 231.364, 102.813 231.683 M 91.500 232.715 C 93.150 232.943, 97.137 233.801, 100.361 234.621 C 103.584 235.441, 106.413 235.921, 106.647 235.687 C 107.345 234.989, 94.319 231.988, 91.294 232.150 L 88.500 232.300 91.500 232.715 M 75.750 233.662 C 76.438 233.940, 77.563 233.940, 78.250 233.662 C 78.938 233.385, 78.375 233.158, 77 233.158 C 75.625 233.158, 75.063 233.385, 75.750 233.662 M 65.085 234.418 C 65.314 234.648, 72.477 236.043, 81.001 237.518 C 99.663 240.747, 112.103 244.576, 121.500 249.983 C 125.350 252.198, 127.376 253.059, 126.003 251.895 C 118.640 245.657, 102.568 240.150, 81.134 236.523 C 65.557 233.886, 64.402 233.735, 65.085 234.418 M 84 235.051 C 90.035 236.125, 94.765 236.032, 89.500 234.943 C 87.300 234.488, 84.150 234.146, 82.500 234.183 C 80.250 234.233, 80.626 234.451, 84 235.051 M 258.405 236.250 L 256.500 238.500 258.750 236.595 C 260.864 234.805, 261.455 234, 260.655 234 C 260.465 234, 259.453 235.012, 258.405 236.250 M 60 235.417 C 60 236.017, 77.389 240.014, 79.624 239.928 C 80.656 239.888, 77 238.790, 71.500 237.488 C 60.606 234.909, 60 234.800, 60 235.417 M 98.500 237.523 C 104.805 239.274, 106.576 239.262, 102 237.500 C 100.075 236.759, 97.375 236.148, 96 236.144 C 94.553 236.139, 95.606 236.720, 98.500 237.523 M 114.334 239.370 C 118.092 241.306, 122.817 244.131, 124.834 245.647 C 132.136 251.138, 138.913 257.332, 138.445 258.088 C 138.182 258.514, 138.385 259.120, 138.896 259.436 C 140.421 260.378, 139.529 257.243, 137.696 255.217 C 136.761 254.183, 136.212 253.121, 136.477 252.856 C 136.742 252.592, 134.830 250.378, 132.229 247.938 L 127.500 243.500 131.958 248.250 C 134.410 250.863, 135.942 253, 135.363 253 C 134.784 253, 133.453 252.047, 132.405 250.881 C 128.253 246.263, 115.467 238.086, 110 236.552 C 108.625 236.166, 110.575 237.434, 114.334 239.370 M 130.252 243.896 C 135.066 248.455, 138.789 252.533, 138.526 252.958 C 138.262 253.384, 138.926 254.528, 140 255.500 C 141.074 256.472, 141.731 257.626, 141.460 258.065 C 141.189 258.503, 141.432 259.149, 142 259.500 C 142.568 259.851, 142.731 260.627, 142.362 261.224 C 141.958 261.877, 142.157 262.021, 142.862 261.585 C 143.506 261.187, 143.695 260.330, 143.282 259.681 C 142.869 259.031, 142.524 257.726, 142.515 256.779 C 142.499 254.926, 132.033 243.823, 125.500 238.728 C 123.300 237.012, 125.438 239.338, 130.252 243.896 M 55 238.500 C 56.375 239.286, 57.950 239.929, 58.500 239.929 C 59.050 239.929, 58.375 239.286, 57 238.500 C 55.625 237.714, 54.050 237.071, 53.500 237.071 C 52.950 237.071, 53.625 237.714, 55 238.500 M 108.865 240.539 C 110.715 241.343, 112.515 241.984, 112.865 241.965 C 114.166 241.892, 108.441 239.071, 107 239.075 C 106.175 239.077, 107.014 239.736, 108.865 240.539 M 253.437 242.250 L 250.500 245.500 253.750 242.563 C 256.779 239.825, 257.460 239, 256.687 239 C 256.515 239, 255.052 240.463, 253.437 242.250 M 69.813 240.683 C 70.534 240.972, 71.397 240.936, 71.729 240.604 C 72.061 240.272, 71.471 240.036, 70.417 240.079 C 69.252 240.127, 69.015 240.364, 69.813 240.683 M 82.750 240.662 C 83.438 240.940, 84.563 240.940, 85.250 240.662 C 85.938 240.385, 85.375 240.158, 84 240.158 C 82.625 240.158, 82.063 240.385, 82.750 240.662 M 124.500 242 C 125.495 243.100, 126.535 244, 126.810 244 C 127.085 244, 126.495 243.100, 125.500 242 C 124.505 240.900, 123.465 240, 123.190 240 C 122.915 240, 123.505 240.900, 124.500 242 M 73.813 241.683 C 74.534 241.972, 75.397 241.936, 75.729 241.604 C 76.061 241.272, 75.471 241.036, 74.417 241.079 C 73.252 241.127, 73.015 241.364, 73.813 241.683 M 88.813 241.683 C 89.534 241.972, 90.397 241.936, 90.729 241.604 C 91.061 241.272, 90.471 241.036, 89.417 241.079 C 88.252 241.127, 88.015 241.364, 88.813 241.683 M 47.500 244 C 48.495 245.100, 49.535 246, 49.810 246 C 50.085 246, 49.495 245.100, 48.500 244 C 47.505 242.900, 46.465 242, 46.190 242 C 45.915 242, 46.505 242.900, 47.500 244 M 54.333 243.575 C 54.333 244.206, 55.046 244.672, 55.917 244.611 C 57.133 244.526, 57.487 245.461, 57.442 248.645 C 57.405 251.286, 57.786 252.635, 58.492 252.365 C 59.851 251.843, 59.979 247, 58.633 247 C 58.102 247, 57.897 246.769, 58.180 246.487 C 58.462 246.205, 61.250 247.105, 64.375 248.487 C 70.595 251.238, 72.938 251.751, 69 249.500 C 65.067 247.252, 67.880 247.748, 77.500 251 C 82.381 252.650, 86.853 253.972, 87.438 253.937 C 88.022 253.902, 82.896 251.927, 76.046 249.547 C 69.197 247.166, 62.935 245.471, 62.132 245.779 C 61.198 246.138, 60.930 245.923, 61.388 245.181 C 61.870 244.401, 61.544 244.238, 60.388 244.681 C 59.231 245.125, 58.905 244.962, 59.388 244.181 C 59.870 243.401, 59.544 243.238, 58.388 243.681 C 57.401 244.060, 56.923 243.934, 57.263 243.384 C 57.587 242.859, 57.061 242.429, 56.093 242.429 C 55.125 242.429, 54.333 242.945, 54.333 243.575 M 68 242.274 C 68 242.972, 84.077 247.256, 84.629 246.705 C 84.873 246.461, 82.243 245.533, 78.786 244.642 C 75.329 243.752, 71.487 242.741, 70.250 242.395 C 69.013 242.050, 68 241.995, 68 242.274 M 91.500 245.928 C 109.227 250.418, 115.948 253.044, 127.735 260.081 C 138.329 266.407, 138 266.228, 138 265.656 C 138 264.540, 117.979 253.389, 111.361 250.820 C 104.163 248.025, 80.992 241.939, 78.025 242.064 C 77.186 242.100, 83.250 243.839, 91.500 245.928 M 92.813 242.683 C 93.534 242.972, 94.397 242.936, 94.729 242.604 C 95.061 242.272, 94.471 242.036, 93.417 242.079 C 92.252 242.127, 92.015 242.364, 92.813 242.683 M 114.083 242.365 C 114.313 242.565, 115.625 243.265, 117 243.920 C 119.357 245.042, 119.389 245.022, 117.559 243.555 C 115.966 242.279, 112.711 241.164, 114.083 242.365 M 64 243.453 C 64 244.049, 82.661 250.019, 84.262 249.935 C 84.943 249.899, 80.775 248.333, 75 246.455 C 63.261 242.637, 64 242.839, 64 243.453 M 96.813 243.683 C 97.534 243.972, 98.397 243.936, 98.729 243.604 C 99.061 243.272, 98.471 243.036, 97.417 243.079 C 96.252 243.127, 96.015 243.364, 96.813 243.683 M 100.813 244.683 C 101.534 244.972, 102.397 244.936, 102.729 244.604 C 103.061 244.272, 102.471 244.036, 101.417 244.079 C 100.252 244.127, 100.015 244.364, 100.813 244.683 M 120 245.311 C 120 245.544, 121.912 246.996, 124.250 248.537 C 126.588 250.079, 127.972 250.701, 127.327 249.920 C 126.086 248.418, 120 244.589, 120 245.311 M 64 247 C 64.825 247.533, 65.950 247.969, 66.500 247.969 C 67.050 247.969, 66.825 247.533, 66 247 C 65.175 246.467, 64.050 246.031, 63.500 246.031 C 62.950 246.031, 63.175 246.467, 64 247 M 242.987 252.773 C 229.668 264.700, 217.947 271.305, 203.590 274.977 C 190.190 278.404, 177.424 276.963, 164.500 270.565 C 158.048 267.371, 157.383 267.228, 156 268.745 C 154.625 270.253, 154.662 270.270, 156.437 268.945 C 158.189 267.638, 158.310 267.673, 157.699 269.302 C 157.304 270.354, 157.422 270.857, 157.982 270.511 C 158.510 270.185, 160.417 270.711, 162.221 271.681 C 165.025 273.187, 165.205 273.489, 163.464 273.763 C 162.345 273.939, 160.095 275.151, 158.464 276.457 L 155.500 278.831 161.583 279.526 C 165.776 280.005, 167.667 280.652, 167.667 281.610 C 167.667 282.577, 166.272 283.036, 163.083 283.118 C 160.563 283.183, 157.150 283.580, 155.500 284 C 152.834 284.678, 153.056 284.788, 157.500 284.981 C 168.388 285.456, 167.416 286.803, 156 287.059 L 144.500 287.317 153.500 288.022 C 182.905 290.327, 218.829 276.216, 245 252.081 C 248.575 248.784, 251.275 246.078, 251 246.066 C 250.725 246.055, 247.119 249.073, 242.987 252.773 M 88 248 C 91.419 249.095, 94.048 249.095, 91.500 248 C 90.400 247.527, 88.600 247.154, 87.500 247.170 C 85.892 247.194, 85.990 247.356, 88 248 M 111 248 C 111.825 248.533, 112.950 248.969, 113.500 248.969 C 114.050 248.969, 113.825 248.533, 113 248 C 112.175 247.467, 111.050 247.031, 110.500 247.031 C 109.950 247.031, 110.175 247.467, 111 248 M 62.250 249.572 C 63.763 250.393, 65 251.290, 65 251.567 C 65 251.844, 64.130 251.605, 63.066 251.035 C 60.391 249.604, 60.291 249.663, 60.447 252.594 C 60.524 254.021, 61.416 255.653, 62.430 256.221 C 63.705 256.934, 64.076 256.931, 63.631 256.212 C 63.277 255.639, 63.553 254.912, 64.244 254.595 C 64.935 254.278, 64.375 254.235, 63 254.500 C 61.625 254.765, 61.065 254.722, 61.756 254.405 C 62.447 254.088, 62.797 253.481, 62.535 253.056 C 61.750 251.787, 68.512 252.698, 71.619 254.280 C 73.204 255.087, 75.625 256.040, 77 256.399 C 78.375 256.758, 75.272 255.015, 70.105 252.526 C 61.081 248.179, 56.521 246.464, 62.250 249.572 M 94.813 249.683 C 95.534 249.972, 96.397 249.936, 96.729 249.604 C 97.061 249.272, 96.471 249.036, 95.417 249.079 C 94.252 249.127, 94.015 249.364, 94.813 249.683 M 86.813 250.683 C 87.534 250.972, 88.397 250.936, 88.729 250.604 C 89.061 250.272, 88.471 250.036, 87.417 250.079 C 86.252 250.127, 86.015 250.364, 86.813 250.683 M 73.118 251.900 C 75.195 253.250, 114.287 266.046, 114.792 265.542 C 115.001 265.333, 106.246 262.238, 95.336 258.665 C 84.426 255.091, 74.600 251.871, 73.500 251.508 C 71.830 250.958, 71.767 251.022, 73.118 251.900 M 91.500 252 C 92.600 252.473, 94.175 252.859, 95 252.859 C 95.945 252.859, 95.761 252.542, 94.500 252 C 93.400 251.527, 91.825 251.141, 91 251.141 C 90.055 251.141, 90.239 251.458, 91.500 252 M 129 251.378 C 129 251.585, 129.787 252.373, 130.750 253.128 C 132.336 254.371, 132.371 254.336, 131.128 252.750 C 129.821 251.084, 129 250.555, 129 251.378 M 121 252.430 C 121 252.705, 121.900 253.411, 123 254 C 124.100 254.589, 125 254.845, 125 254.570 C 125 254.295, 124.100 253.589, 123 253 C 121.900 252.411, 121 252.155, 121 252.430 M 139 253.378 C 139 253.585, 139.787 254.373, 140.750 255.128 C 142.336 256.371, 142.371 256.336, 141.128 254.750 C 139.821 253.084, 139 252.555, 139 253.378 M 90.500 255 C 91.600 255.473, 93.175 255.859, 94 255.859 C 94.945 255.859, 94.761 255.542, 93.500 255 C 92.400 254.527, 90.825 254.141, 90 254.141 C 89.055 254.141, 89.239 254.458, 90.500 255 M 129 254.378 C 129 254.585, 129.787 255.373, 130.750 256.128 C 132.336 257.371, 132.371 257.336, 131.128 255.750 C 129.821 254.084, 129 253.555, 129 254.378 M 106 256.500 C 110.566 258.258, 112.362 258.232, 108.500 256.464 C 106.850 255.708, 104.825 255.104, 104 255.121 C 103.175 255.138, 104.075 255.759, 106 256.500 M 114 256 C 114.825 256.533, 115.950 256.969, 116.500 256.969 C 117.050 256.969, 116.825 256.533, 116 256 C 115.175 255.467, 114.050 255.031, 113.500 255.031 C 112.950 255.031, 113.175 255.467, 114 256 M 144.354 257.164 C 144.465 257.899, 144.823 258.950, 145.149 259.500 C 145.474 260.050, 145.608 261.329, 145.446 262.342 C 145.283 263.355, 145.454 263.880, 145.825 263.508 C 146.196 263.137, 146.507 262.533, 146.515 262.167 C 146.524 261.800, 146.851 260.998, 147.242 260.384 C 147.633 259.770, 147.098 258.493, 146.052 257.547 C 144.722 256.343, 144.212 256.228, 144.354 257.164 M 82.500 258.387 C 84.150 259.138, 86.625 260.029, 88 260.366 C 90.008 260.859, 89.909 260.710, 87.500 259.613 C 85.850 258.862, 83.375 257.971, 82 257.634 C 79.992 257.141, 80.091 257.290, 82.500 258.387 M 105.813 259.683 C 106.534 259.972, 107.397 259.936, 107.729 259.604 C 108.061 259.272, 107.471 259.036, 106.417 259.079 C 105.252 259.127, 105.015 259.364, 105.813 259.683 M 122.500 259.808 C 123.906 261.223, 143.024 271.312, 143.456 270.866 C 143.651 270.665, 138.791 267.868, 132.655 264.650 C 126.520 261.433, 121.950 259.254, 122.500 259.808 M 66.190 260.861 C 65.206 261.485, 65.539 262.123, 67.527 263.426 C 68.983 264.380, 70.398 264.935, 70.672 264.661 C 70.947 264.387, 70.172 263.627, 68.951 262.974 C 67.185 262.028, 67.013 261.605, 68.115 260.908 C 68.877 260.425, 69.050 260.031, 68.500 260.031 C 67.950 260.031, 66.911 260.404, 66.190 260.861 M 128 266 C 133.225 268.694, 137.950 270.898, 138.500 270.898 C 139.050 270.898, 135.225 268.694, 130 266 C 124.775 263.306, 120.050 261.102, 119.500 261.102 C 118.950 261.102, 122.775 263.306, 128 266 M 101.926 265.066 C 106.561 266.669, 110.527 267.807, 110.740 267.594 C 111.194 267.139, 95.963 261.965, 94.497 262.075 C 93.948 262.117, 97.292 263.462, 101.926 265.066 M 148.875 262.500 C 148.806 262.775, 148.687 263.337, 148.610 263.750 C 148.533 264.163, 148.061 265.175, 147.563 266 C 147.003 266.927, 147.477 266.780, 148.805 265.616 C 149.986 264.580, 150.712 263.343, 150.417 262.866 C 149.825 261.907, 149.068 261.728, 148.875 262.500 M 150.872 265.750 C 149.629 267.336, 149.664 267.371, 151.250 266.128 C 152.916 264.821, 153.445 264, 152.622 264 C 152.415 264, 151.627 264.788, 150.872 265.750 M 123 266.500 C 124.375 267.286, 125.950 267.929, 126.500 267.929 C 127.050 267.929, 126.375 267.286, 125 266.500 C 123.625 265.714, 122.050 265.071, 121.500 265.071 C 120.950 265.071, 121.625 265.714, 123 266.500 M 117 267 C 117.825 267.533, 118.950 267.969, 119.500 267.969 C 120.050 267.969, 119.825 267.533, 119 267 C 118.175 266.467, 117.050 266.031, 116.500 266.031 C 115.950 266.031, 116.175 266.467, 117 267 M 116 269.831 C 116.825 270.341, 118.625 271.059, 120 271.427 C 121.737 271.892, 122.042 271.813, 121 271.169 C 120.175 270.659, 118.375 269.941, 117 269.573 C 115.263 269.108, 114.958 269.187, 116 269.831 M 91 271 C 91.825 271.533, 92.950 271.969, 93.500 271.969 C 94.050 271.969, 93.825 271.533, 93 271 C 92.175 270.467, 91.050 270.031, 90.500 270.031 C 89.950 270.031, 90.175 270.467, 91 271 M 151.441 272.555 C 149.577 274.049, 149.589 274.067, 151.750 273.020 C 152.988 272.420, 154 271.720, 154 271.465 C 154 270.700, 153.481 270.921, 151.441 272.555 M 95 272.341 C 95 272.933, 107 277.027, 108.444 276.927 C 109.025 276.887, 107.250 276.053, 104.500 275.073 C 96.908 272.369, 95 271.821, 95 272.341 M 107.500 273.536 C 109.150 274.292, 111.175 274.896, 112 274.879 C 112.825 274.862, 111.925 274.241, 110 273.500 C 105.434 271.742, 103.638 271.768, 107.500 273.536 M 143 273 C 144.235 273.798, 144.250 273.972, 143.083 273.985 C 142.304 273.993, 141.902 274.236, 142.190 274.524 C 142.478 274.811, 143.491 274.749, 144.441 274.384 C 145.810 273.859, 145.891 273.546, 144.834 272.876 C 144.100 272.411, 143.050 272.031, 142.500 272.031 C 141.950 272.031, 142.175 272.467, 143 273 M 152 274.500 C 149.525 275.825, 147.855 276.930, 148.290 276.955 C 149.352 277.016, 157 273.086, 157 272.480 C 157 271.817, 157.041 271.800, 152 274.500 M 157.450 273.938 C 156.928 274.453, 155.150 275.575, 153.500 276.431 C 151.850 277.287, 151.175 277.988, 152 277.989 C 153.373 277.990, 160.209 273.118, 158.950 273.036 C 158.648 273.016, 157.972 273.422, 157.450 273.938 M 146 275 C 145.175 275.533, 144.950 275.969, 145.500 275.969 C 146.050 275.969, 147.175 275.533, 148 275 C 148.825 274.467, 149.050 274.031, 148.500 274.031 C 147.950 274.031, 146.825 274.467, 146 275 M 160.211 276.538 C 159.128 277.766, 159.257 278, 161.020 278 C 162.299 278, 162.851 277.568, 162.434 276.893 C 161.960 276.126, 162.787 275.972, 165.125 276.391 C 167.636 276.840, 167.988 276.758, 166.500 276.068 C 163.610 274.728, 161.680 274.872, 160.211 276.538 M 126.813 279.683 C 127.534 279.972, 128.397 279.936, 128.729 279.604 C 129.061 279.272, 128.471 279.036, 127.417 279.079 C 126.252 279.127, 126.015 279.364, 126.813 279.683 M 135.813 279.683 C 136.534 279.972, 137.397 279.936, 137.729 279.604 C 138.061 279.272, 137.471 279.036, 136.417 279.079 C 135.252 279.127, 135.015 279.364, 135.813 279.683 M 139.813 280.683 C 140.534 280.972, 141.397 280.936, 141.729 280.604 C 142.061 280.272, 141.471 280.036, 140.417 280.079 C 139.252 280.127, 139.015 280.364, 139.813 280.683 M 123.813 281.683 C 124.534 281.972, 125.397 281.936, 125.729 281.604 C 126.061 281.272, 125.471 281.036, 124.417 281.079 C 123.252 281.127, 123.015 281.364, 123.813 281.683 M 144.813 281.683 C 145.534 281.972, 146.397 281.936, 146.729 281.604 C 147.061 281.272, 146.471 281.036, 145.417 281.079 C 144.252 281.127, 144.015 281.364, 144.813 281.683 M 105.813 282.683 C 106.534 282.972, 107.397 282.936, 107.729 282.604 C 108.061 282.272, 107.471 282.036, 106.417 282.079 C 105.252 282.127, 105.015 282.364, 105.813 282.683 M 149.750 282.662 C 150.438 282.940, 151.563 282.940, 152.250 282.662 C 152.938 282.385, 152.375 282.158, 151 282.158 C 149.625 282.158, 149.063 282.385, 149.750 282.662 M 132.813 283.683 C 133.534 283.972, 134.397 283.936, 134.729 283.604 C 135.061 283.272, 134.471 283.036, 133.417 283.079 C 132.252 283.127, 132.015 283.364, 132.813 283.683 M 144.750 283.662 C 145.438 283.940, 146.563 283.940, 147.250 283.662 C 147.938 283.385, 147.375 283.158, 146 283.158 C 144.625 283.158, 144.063 283.385, 144.750 283.662 M 112.813 284.683 C 113.534 284.972, 114.397 284.936, 114.729 284.604 C 115.061 284.272, 114.471 284.036, 113.417 284.079 C 112.252 284.127, 112.015 284.364, 112.813 284.683 M 124.813 284.683 C 125.534 284.972, 126.397 284.936, 126.729 284.604 C 127.061 284.272, 126.471 284.036, 125.417 284.079 C 124.252 284.127, 124.015 284.364, 124.813 284.683 M 138.813 284.683 C 139.534 284.972, 140.397 284.936, 140.729 284.604 C 141.061 284.272, 140.471 284.036, 139.417 284.079 C 138.252 284.127, 138.015 284.364, 138.813 284.683 M 116.813 285.683 C 117.534 285.972, 118.397 285.936, 118.729 285.604 C 119.061 285.272, 118.471 285.036, 117.417 285.079 C 116.252 285.127, 116.015 285.364, 116.813 285.683 M 145.750 285.662 C 146.438 285.940, 147.563 285.940, 148.250 285.662 C 148.938 285.385, 148.375 285.158, 147 285.158 C 145.625 285.158, 145.063 285.385, 145.750 285.662 M 121.813 286.683 C 122.534 286.972, 123.397 286.936, 123.729 286.604 C 124.061 286.272, 123.471 286.036, 122.417 286.079 C 121.252 286.127, 121.015 286.364, 121.813 286.683 M 136.813 286.683 C 137.534 286.972, 138.397 286.936, 138.729 286.604 C 139.061 286.272, 138.471 286.036, 137.417 286.079 C 136.252 286.127, 136.015 286.364, 136.813 286.683 M 126.750 287.662 C 127.438 287.940, 128.563 287.940, 129.250 287.662 C 129.938 287.385, 129.375 287.158, 128 287.158 C 126.625 287.158, 126.063 287.385, 126.750 287.662 M 135.250 288.689 C 136.213 288.941, 137.787 288.941, 138.750 288.689 C 139.713 288.438, 138.925 288.232, 137 288.232 C 135.075 288.232, 134.287 288.438, 135.250 288.689 M 149.269 289.693 C 150.242 289.947, 151.592 289.930, 152.269 289.656 C 152.946 289.382, 152.150 289.175, 150.500 289.195 C 148.850 289.215, 148.296 289.439, 149.269 289.693" stroke="none" fill="#c89a44" fill-rule="evenodd"/></svg>